<?xml version="1.0" encoding="UTF-8"?>
<svg width="29px" height="30px" viewBox="0 0 29 30" version="1.1" xmlns="http://www.w3.org/2000/svg" xmlns:xlink="http://www.w3.org/1999/xlink">
    <title>Close out</title>
    <g id="Wireframes_22Oct2020" stroke="none" stroke-width="1" fill="none" fill-rule="evenodd">
        <g id="MW_Homepage_Navigation" transform="translate(-320.000000, -15.000000)" fill="#33606E">
            <g id="Close-out" transform="translate(320.000000, 15.000000)">
                <path d="M30.6922134,17.227705 L-1.59147432,15.5285635 C-2.5655511,15.4772963 -3.38655974,14.8188588 -3.42667009,14.056762 C-3.46678045,13.2946652 -2.71071239,12.7192318 -1.73663561,12.770499 L30.5934367,14.4720817 C31.5675135,14.5233489 32.3880583,15.181762 32.4281686,15.9438588 C32.468279,16.7059556 31.7126748,17.2814134 30.6922134,17.227705" id="Fill-1" transform="translate(14.500749, 14.999251) rotate(45.000000) translate(-14.500749, -14.999251) "></path>
                <path d="M30.5462941,15.5306732 L-1.73739359,17.2298147 C-2.71147037,17.2810819 -3.46753843,16.7056484 -3.42742807,15.9435516 C-3.38731772,15.1814549 -2.56630908,14.5230174 -1.5922323,14.4717502 L30.73784,12.7701674 C31.7119168,12.7189002 32.467521,13.2943581 32.4274106,14.0564549 C32.3873003,14.8185516 31.5667555,15.4769647 30.5462941,15.5306732" id="Fill-1" transform="translate(14.499992, 14.999991) rotate(-45.000000) translate(-14.499992, -14.999991) "></path>
            </g>
        </g>
    </g>
</svg>