<?xml version="1.0" encoding="UTF-8"?>
<svg width="22px" height="13px" viewBox="0 0 22 13" version="1.1" xmlns="http://www.w3.org/2000/svg" xmlns:xlink="http://www.w3.org/1999/xlink">
    <title>Untitled</title>
    <g id="Page-1" stroke="none" stroke-width="1" fill="none" fill-rule="evenodd">
        <g id="uparrow" transform="translate(11.000000, 6.500000) rotate(-180.000000) translate(-11.000000, -6.500000) translate(0.000000, 0.000000)" fill="#33606E" fill-rule="nonzero">
            <path d="M13.2612475,7.5823717 L-0.244748653,7.5823717 C-0.652257159,7.5823717 -0.982144997,7.1061408 -0.982144997,6.51785557 C-0.982144997,5.92957034 -0.652257159,5.45333944 -0.244748653,5.45333944 L13.2806527,5.45333944 C13.6881612,5.45333944 14.017855,5.92957034 14.017855,6.51785557 C14.017855,7.1061408 13.6881612,7.5823717 13.2612475,7.5823717" id="Fill-1" transform="translate(6.517855, 6.517856) rotate(45.000000) translate(-6.517855, -6.517856) "></path>
            <path d="M22.2255375,7.5823717 L8.71954134,7.5823717 C8.31203284,7.5823717 7.982145,7.1061408 7.982145,6.51785557 C7.982145,5.92957034 8.31203284,5.45333944 8.71954134,5.45333944 L22.2449427,5.45333944 C22.6524512,5.45333944 22.982145,5.92957034 22.982145,6.51785557 C22.982145,7.1061408 22.6524512,7.5823717 22.2255375,7.5823717" id="Fill-1" transform="translate(15.482145, 6.517856) rotate(-45.000000) translate(-15.482145, -6.517856) "></path>
        </g>
    </g>
</svg>