<?xml version="1.0" encoding="UTF-8"?>
<svg width="22px" height="13px" viewBox="0 0 22 13" version="1.1" xmlns="http://www.w3.org/2000/svg" xmlns:xlink="http://www.w3.org/1999/xlink">
    <title>Drop down Copy 5</title>
    <g id="Wireframes_22Oct2020" stroke="none" stroke-width="1" fill="none" fill-rule="evenodd">
        <g id="MW_Homepage_Navigation" transform="translate(-326.000000, -365.000000)" fill="#33606E">
            <g id="Partners" transform="translate(21.000000, 360.000000)">
                <g id="Drop-down-Copy-5" transform="translate(305.000000, 5.000000)">
                    <path d="M13.2612479,7.58237153 L-0.244748253,7.58237153 C-0.652256759,7.58237153 -0.982144597,7.10614063 -0.982144597,6.5178554 C-0.982144597,5.92957017 -0.652256759,5.45333927 -0.244748253,5.45333927 L13.2806531,5.45333927 C13.6881616,5.45333927 14.0178554,5.92957017 14.0178554,6.5178554 C14.0178554,7.10614063 13.6881616,7.58237153 13.2612479,7.58237153" id="Fill-1" transform="translate(6.517855, 6.517855) rotate(45.000000) translate(-6.517855, -6.517855) "></path>
                    <path d="M22.2255371,7.58237153 L8.71954094,7.58237153 C8.31203244,7.58237153 7.9821446,7.10614063 7.9821446,6.5178554 C7.9821446,5.92957017 8.31203244,5.45333927 8.71954094,5.45333927 L22.2449423,5.45333927 C22.6524508,5.45333927 22.9821446,5.92957017 22.9821446,6.5178554 C22.9821446,7.10614063 22.6524508,7.58237153 22.2255371,7.58237153" id="Fill-1" transform="translate(15.482145, 6.517855) rotate(-45.000000) translate(-15.482145, -6.517855) "></path>
                </g>
            </g>
        </g>
    </g>
</svg>